# xmcd
#
# Track frame offsets:
#	150
#	11850
#	26400
#	42525
#	64125
#	86675
#	101000
#	114400
#	121475
#	150650
#	166775
#
# Disc length: 2420 seconds
#
# Revision: 1
# Processed by: cddbd v1.5.2PL0 Copyright (c) Steve Scherf et al.
# Submitted via: audiograbber 1.83.01
#
DISCID=8909720b
DTITLE=Kroonenberg, Linnemann en Van der Zalm - Light
DYEAR=2017
DGENRE=
TTITLE0=Light
TTITLE1=Oliana
TTITLE2=Black
TTITLE3=Come And Get It
TTITLE4=Ducks
TTITLE5=Lucky Me
TTITLE6=One Of Us
TTITLE7=May Morning Dew
TTITLE8=Give Room To Love
TTITLE9=Mankind
TTITLE10=Leopards
EXTD=
EXTT0=
EXTT1=
EXTT2=
EXTT3=
EXTT4=
EXTT5=
EXTT6=
EXTT7=
EXTT8=
EXTT9=
EXTT10=
PLAYORDER=
